<?xml version="1.0" encoding="UTF-8"?>
<svg xmlns="http://www.w3.org/2000/svg" width="512" height="512" viewBox="0 0 512 512">
  <defs>
    <linearGradient id="g" x1="0" x2="1" y1="0" y2="1">
      <stop offset="0%" stop-color="#0ea5e9"/>
      <stop offset="100%" stop-color="#2563eb"/>
    </linearGradient>
  </defs>
  <rect width="512" height="512" rx="96" fill="url(#g)"/>
  <g fill="#ffffff">
    <!-- Simple plane icon -->
    <path d="M458 246c-3-8-13-12-21-9l-116 41-112-88 85-31c5-2 8-7 8-12 0-9-9-16-18-13l-117 42-62-49c-4-4-11-4-16-1l-18 13c-4 3-5 9-2 13l47 60-59 21c-8 3-12 13-9 21 3 8 13 12 21 9l69-24 112 88-53 92c-3 6-1 13 5 16 4 2 9 2 12-1l86-70 69 54c4 4 11 4 16 1l18-13c4-3 5-9 2-13l-54-68 117-41c8-3 12-13 9-21z"/>
  </g>
</svg>
